<svg width="872" height="243" viewBox="0 0 872 243" fill="none" xmlns="http://www.w3.org/2000/svg">
<path d="M268.05 77.4596C257.22 56.8996 237.5 43.1396 214.95 43.1396C180.76 43.1396 153 74.8196 153 113.93C153 153.04 180.76 184.72 214.95 184.72C237.48 184.72 257.21 170.96 268.05 150.39V181.19H303.45V46.6796H268.05V77.4596ZM223.83 149.33C204.25 149.33 188.43 133.47 188.43 113.93C188.43 94.3896 204.25 78.5396 223.83 78.5396C243.41 78.5396 259.23 94.3997 259.23 113.93C259.23 133.46 243.37 149.33 223.83 149.33Z" fill="#191919"/>
<path d="M524.76 77.1498C513.93 56.5898 494.21 42.8398 471.66 42.8398C437.47 42.8398 409.71 74.5198 409.71 113.63C409.71 152.74 437.47 184.42 471.66 184.42C494.19 184.42 513.92 170.66 524.76 150.09V180.88H560.16V46.3798H524.76V77.1598V77.1498ZM480.54 149.02C460.96 149.02 445.14 133.16 445.14 113.62C445.14 94.0798 460.96 78.2298 480.54 78.2298C500.12 78.2298 515.94 94.0898 515.94 113.62C515.94 133.15 500.08 149.02 480.54 149.02Z" fill="#191919"/>
<path d="M409.71 46.6797H371.6C343.84 46.6797 321.35 69.1697 321.35 96.9297V181.19H356.75V92.1297C356.75 86.5797 361.25 82.0797 366.8 82.0797H409.72V46.6797H409.71Z" fill="#191919"/>
<path d="M688.11 77.1501C677.28 56.5901 657.56 42.8301 635.01 42.8301C600.82 42.8301 573.06 74.5101 573.06 113.62C573.06 152.73 600.82 184.41 635.01 184.41C657.54 184.41 677.27 170.65 688.11 150.08V196.61C688.11 202.16 683.61 206.66 678.06 206.66H590.77V242.06H673.26C701.02 242.06 723.51 219.57 723.51 191.81V46.8901H688.11V77.1501ZM643.89 149.02C624.31 149.02 608.49 133.16 608.49 113.62C608.49 94.0801 624.31 78.2301 643.89 78.2301C663.47 78.2301 679.28 94.0901 679.28 113.62C679.28 133.15 663.42 149.02 643.89 149.02Z" fill="#191919"/>
<path d="M872 113.61C872 81.0503 852.76 42.8203 807.2 42.8203C768.11 42.8203 736.41 74.5403 736.41 113.61C736.41 152.68 768.13 184.4 807.2 184.4C838.25 184.4 854.07 167.6 866.61 156.22L841.12 135.54C831.81 144.75 820.08 149.03 807.19 149.03C790.69 149.03 776.82 137.75 772.94 122.48H871.41C871.81 119.56 871.99 116.63 871.99 113.62L872 113.61ZM774.22 100.84C779.3 87.5903 792.15 78.2303 807.2 78.2303C822.25 78.2303 835.16 89.5503 836.2 100.84H774.21H774.22Z" fill="#191919"/>
<path d="M39.33 26.8604H0V182.94H39.33V26.8604Z" fill="#191919"/>
<path d="M87.69 104.2C87.74 102.07 88.64 100.05 90.18 98.59L170.92 30L145.48 0L69.29 64.72C57.92 74.36 51.19 88.44 50.84 103.34C50.49 118.25 56.54 132.63 67.45 142.8L115.83 187.9L142.64 159.13L90.25 110.29C88.57 108.72 87.63 106.5 87.69 104.2Z" fill="#191919"/>
</svg>
