<svg width="476" height="374" viewBox="0 0 476 374" fill="none" xmlns="http://www.w3.org/2000/svg">
<path fill-rule="evenodd" clip-rule="evenodd" d="M190.935 241.383L190.935 52.3673L235.071 52.3673L235.071 241.383L190.935 241.383Z" fill="white"/>
<path fill-rule="evenodd" clip-rule="evenodd" d="M307.217 128.591C299.767 134.904 299.498 146.305 306.64 152.964L367.173 209.399L337.077 241.681L276.544 185.247C250.074 160.569 251.074 118.319 278.681 94.9207L381.033 8.17561L409.569 41.8455L307.217 128.591Z" fill="white"/>
<path fill-rule="evenodd" clip-rule="evenodd" d="M227.482 283.953C240.618 270.818 258.433 263.438 277.009 263.438H380.909V307.574H277.009C270.138 307.574 263.549 310.303 258.691 315.162L220.59 353.263C207.454 366.398 189.639 373.777 171.063 373.777H99.7847V329.642H171.063C177.934 329.642 184.523 326.913 189.381 322.054L227.482 283.953Z" fill="white"/>
<path fill-rule="evenodd" clip-rule="evenodd" d="M108.591 96.492H22.0678V52.3564H108.591C174.652 52.3564 192.829 143.163 131.859 168.592L65.6395 196.21C52.617 201.641 44.1356 214.368 44.1356 228.478C44.1356 247.787 59.7886 263.44 79.0974 263.44H168.867V307.575H79.0974C35.4131 307.575 0 272.162 0 228.478C0 196.556 19.1882 167.763 48.6503 155.475L114.87 127.857C131.322 120.995 126.417 96.492 108.591 96.492Z" fill="white"/>
<path d="M104.583 199.154H146.799V241.371H104.583V199.154Z" fill="white"/>
</svg>
