<?xml version="1.0" encoding="utf-8"?>
<!-- Generator: Adobe Illustrator 24.0.1, SVG Export Plug-In . SVG Version: 6.00 Build 0)  -->
<svg version="1.1" id="Layer_1" xmlns="http://www.w3.org/2000/svg" xmlns:xlink="http://www.w3.org/1999/xlink" x="0px" y="0px"
	 viewBox="0 0 1417.3 845.8" style="enable-background:new 0 0 1417.3 845.8;" xml:space="preserve">
<style type="text/css">
	.st0{fill:#FFFFFF;}
</style>
<path class="st0" d="M1390,42.2c0.2,3.6-2,7-5.4,8.2l6,12.2h-5.5l-5.3-11.3h-6.1v11.3h-4.9V33.1h11.3
	C1386.9,33.1,1390,37.3,1390,42.2z M1379.3,47.4c3.7,0,5.7-1.8,5.7-5c0-3.5-2.3-5.2-5.6-5.2h-5.8v10.2H1379.3z"/>
<path class="st0" d="M1379.7,85.5c-20.8,0-37.6-16.8-37.6-37.6s16.8-37.6,37.6-37.6c20.8,0,37.6,16.8,37.6,37.6
	C1417.3,68.6,1400.5,85.5,1379.7,85.5z M1379.7,16.1c-17.5,0-31.7,14.2-31.7,31.7s14.2,31.7,31.7,31.7s31.7-14.2,31.7-31.7l0,0
	C1411.4,30.3,1397.2,16.1,1379.7,16.1z"/>
<path class="st0" d="M352.9,315.2c-20.6,0-37.4-5.1-50.5-15.4s-19.7-26.1-19.6-47.5c0-15.8,3.5-28.5,10.5-38.2
	c7-9.6,16.5-16.8,28.5-21.6c12.8-5,26.4-7.9,40.1-8.7c18.1-1.3,31-3.3,38.6-5.8s11.4-6.9,11.4-13.2v-0.6c0-5.6-2.1-9.9-6.5-12.9
	c-4.3-3-9.8-4.5-16.6-4.5c-7.4,0-13.4,1.6-18,4.8s-7.4,8.2-8.4,14.8h-71.3c0.9-13,5.2-25.5,12.6-36.3c7.4-11.1,18.3-20,32.6-26.7
	c14.3-6.7,32.2-10,53.6-10c20.6,0,38.3,3.1,53.1,9.4s26.2,14.7,34.2,25.4c7.9,10.3,12.1,22.9,12,35.9v147.6h-72.4v-30.3h-1.7
	c-6.5,12.1-15.1,20.7-25.5,25.9C379.1,312.6,366.9,315.2,352.9,315.2z M378.1,266.4c8.6,0.1,16.9-2.8,23.7-8.1
	c7-5.4,10.5-13,10.5-22.8v-18c-7.7,3.2-18,5.8-30.9,7.9c-9,1.4-15.5,4.1-19.6,8.1c-4,3.7-6.2,8.9-6.2,14.3c0,6,2.1,10.6,6.3,13.7
	C366.2,264.7,371.6,266.4,378.1,266.4L378.1,266.4z"/>
<path class="st0" d="M512.8,311.8V96.3H588v41h2.2c4-15.2,10.3-26.2,18.8-33.3c8.4-7,19.1-10.7,30-10.5c5.5,0,11.1,0.7,16.4,2.1
	c5,1.3,9.9,3.2,14.4,5.8l-22.4,63.4c-3.2-1.5-6.6-2.8-10-3.9c-3.7-1.2-7.5-1.7-11.4-1.7c-9.6,0-18,3.7-25.1,11s-10.7,17.1-10.8,29.4
	v112.2H512.8z"/>
<path class="st0" d="M730.5,315.2c-20.6,0-37.4-5.1-50.5-15.4s-19.7-26.1-19.7-47.5c0-15.8,3.5-28.5,10.5-38.2
	c7-9.6,16.5-16.8,28.5-21.6c12.8-5,26.4-7.9,40.1-8.7c18.1-1.3,31-3.3,38.6-5.8s11.4-6.9,11.4-13.2v-0.6c0-5.6-2.2-9.9-6.5-12.9
	s-9.8-4.5-16.5-4.5c-7.4,0-13.4,1.6-18,4.8s-7.4,8.2-8.3,14.8h-71.3c0.9-13,5.2-25.5,12.6-36.3c7.4-11.1,18.3-20,32.6-26.7
	s32.2-10,53.6-10c20.6,0,38.3,3.1,53.1,9.4s26.2,14.7,34.2,25.4c7.9,10.3,12.1,22.9,12,35.9v147.6h-72.4v-30.3h-1.7
	c-6.6,12.1-15.1,20.7-25.5,25.9S744.6,315.2,730.5,315.2z M755.8,266.4c8.6,0.1,16.9-2.8,23.7-8.1c7-5.4,10.5-13,10.5-22.8v-18
	c-7.7,3.2-18,5.8-30.9,7.9c-9,1.4-15.5,4.1-19.6,8.1c-4,3.7-6.2,8.9-6.2,14.3c0,6,2.1,10.6,6.3,13.7S749.2,266.4,755.8,266.4z"/>
<path class="st0" d="M994.3,394.9c-21.6,0-40.1-3-55.5-9s-27.3-14.3-35.8-24.7c-8.3-10-13.3-22.3-14.2-35.3h74.7
	c1.1,5.7,4.7,9.9,10.7,12.7s13.5,4.1,22.4,4.1c10,0,18.3-2.3,24.9-7s9.9-12.8,9.9-24.4v-36.5h-2.2c-4.2,11-11.7,19.4-22.5,25.3
	s-23.5,8.9-38.1,8.9c-14.8,0.1-29.4-3.5-42.3-10.7c-12.9-7.1-23.2-18.4-30.9-33.8s-11.6-35.6-11.6-60.5c0-26,4-47.1,12.1-63.4
	s18.6-28.2,31.4-35.8c12.3-7.4,26.3-11.3,40.6-11.4c16,0,29,4,39.1,12s17.2,17.5,21.5,28.4h1.7V96.4h77.4v215
	c0,17.5-4.7,32.5-14.1,45s-22.6,22.1-39.6,28.7C1036.9,391.6,1017,394.9,994.3,394.9z M997.1,254c10.7,0,19-4.4,25.1-13.2
	s9.1-21,9.1-36.8c0-16-3-28.5-9.1-37.5s-14.5-13.5-25.1-13.5c-10.7,0-18.9,4.5-24.8,13.5c-5.9,9-8.8,21.5-8.8,37.5s2.9,28.3,8.8,37
	C978.2,249.8,986.4,254.1,997.1,254z"/>
<path class="st0" d="M1236.8,315.8c-34.5,0-61.7-9.8-81.4-29.4s-29.7-46.8-29.7-81.7c0-22.2,4.5-41.7,13.5-58.4
	c8.7-16.3,21.9-29.8,38-38.9c16.4-9.3,35.7-13.9,58-13.9c21.7,0,40.6,4.4,56.6,13.3c15.9,8.8,28.9,22,37.3,38.1
	c8.8,16.5,13.3,36.2,13.3,59.1v18H1202v3.4c0,10.4,3.2,19,9.6,25.8s15.4,10.2,26.9,10.2c7.3,0.2,14.4-1.6,20.8-5
	c5.7-3,10.1-8.1,12.3-14.1h70.7c-3.7,22.4-14.7,40.3-33,53.6S1266.8,315.8,1236.8,315.8z M1202,179.4h69c-0.2-9.3-3.5-16.8-10-22.7
	s-14.5-8.8-24.2-8.8c-8.9-0.2-17.6,2.9-24.3,8.7C1205.6,162.5,1202.1,170,1202,179.4z"/>
<path class="st0" d="M259.7,151.2H147.5c-3.3,0-6,2.7-6,6v43.3c0,3.3,2.7,6,6,6h49.9c-1.9,3.8-4,7.5-6.5,11
	c-12.2,17.2-30.7,28.2-51.4,28.2c-19.9,0-37.8-10.2-49.9-26.4c-2.3-3.1-4.4-6.4-6.3-9.9c-0.5-0.9-1-1.7-1.4-2.5
	c-3.9-5.7-9.6-9.9-16.2-12c-0.1,0-0.3,0-0.4-0.1c-2.2-0.7-4.5-1.1-6.8-1.3H0.1c2.4,19.8,7.8,37.6,16.2,53.2
	c11.8,21.9,28.2,38.7,49.3,50.6s45.5,17.8,73.4,17.8c25,0,47.1-4.9,66.5-14.7c19-9.5,34.8-24.2,45.5-42.5
	c11-18.5,16.6-40.8,16.6-66.9v-39.7L259.7,151.2z"/>
<path class="st0" d="M244.1,68.4c-11.4-14.8-26.3-26.4-44.5-34.8S161,20.9,138.4,21c-25.7,0-49.2,5.7-70.3,17.2s-38,28.2-50.6,50.2
	c-9.2,16.1-15.1,34.7-17.5,56h57.5c2.5-0.2,5-0.7,7.4-1.4c6.6-2.1,12.4-6.4,16.3-12.1c0.8-1.8,1.8-3.5,2.7-5.1v-0.1l1.1-1.9h0.1
	c1.5-2.6,3.2-5.1,5.1-7.6l0,0c12.2-15.7,29.8-25.6,49.3-25.6c14.4,0,27.6,5.4,38.5,14.5h0.1l2.3,2l0,0l0.1,0.1l0,0
	c2.9,2.7,5.6,5.6,8,8.8c0.2,0.3,0.4,0.5,0.6,0.8c1.7,1.7,4.1,2.7,6.5,2.7h68.5C262.5,100.8,255.5,83.1,244.1,68.4z"/>
<path class="st0" d="M797.4,775.5c-6.6,6.5-10.3,15.4-10.1,24.6c0,9.9,3.5,18.5,10.1,24.9s14.8,9.7,24.5,9.7
	c9.2,0.1,18-3.5,24.3-10.1c12.9-13.8,12.9-35.3-0.2-49C833.2,762.7,810.5,762.7,797.4,775.5z"/>
<path class="st0" d="M853.7,597.9c-4.3-13-11.6-24.9-21.4-34.6c-9.6-9.7-22.2-17.3-37.5-22.8c-15-5.3-33.2-8-54.2-8
	c-10.5,0.1-21,1-31.4,2.8c-12.7,2-25.1,5.4-37.1,10l-8,3l16.7,58.6l9.2-3c7.4-2.4,14.9-4.1,22.6-5.2c6.1-0.9,12.3-1.4,18.4-1.5
	c19.2,0,33.4,3.5,42.1,10.5c8.2,6.5,12.2,16.1,12.2,29.3c0,5.3-0.4,10.5-1.4,15.7c-0.6,3.4-2.2,6.6-4.5,9.2
	c-2.2,2.5-5.8,4.6-10.7,6.2c-5.4,1.8-12.9,2.7-22.4,2.7h-33.4c-14,0-26.4,2-36.9,6c-10.2,3.7-19.4,9.6-27,17.3
	c-7.1,7.4-12.5,16.3-15.8,26c-3.3,9.9-5,20.3-4.9,30.8c0,14.2,2.5,26.7,7.6,37.3s12.7,19.8,22.2,26.7c9.4,6.9,20.9,12,34.1,15.2
	c14.1,3.3,28.5,4.9,42.9,4.7h29.4v-63.6l-28.2-0.1c-12.5,0-21.8-1.8-27.8-5.5c-4.8-2.9-7-6.9-7.2-12.6c0-5.9,1.7-10.1,5.3-13.3
	c3.8-3.4,10.5-5.1,19.6-5.1H766c12.2,0.1,24.3-1.4,36.1-4.6c11.3-3,21.8-8.6,30.7-16.3c8.8-7.7,15.6-17.8,20.5-30.2
	c4.7-12.1,7.1-26.9,7.1-44C860.4,625.3,858.2,611.3,853.7,597.9z"/>
<rect x="883" y="444.9" class="st0" width="77.5" height="286"/>
<path class="st0" d="M1256.2,544.3l54.1-56.3l-54.4-51.2l-109,116.2v60h102.8c31.8,0,30.6,49-0.5,49h-151.6V545.3h-77.5v159.2
	c0,11.5-0.2,16.5-11.8,15.2l-24.6-1.4v68.5l9.3,2c2.4,0.5,4.8,1,7.5,1.4c7.1,1.1,14.3,1.6,21.5,1.6c8.4,0,16.9-0.9,25.1-2.8
	c9.2-2.1,17.8-6.2,25.1-12.1c7.6-6,13.7-14.2,18.1-24.3c3-7,5-14.3,5.9-21.8h171.3c26.7,0,46.9-6.5,59-20.1
	C1360.9,672.4,1375.5,548.9,1256.2,544.3z"/>
</svg>
